<svg xmlns="http://www.w3.org/2000/svg" width="34.214" height="34.214" viewBox="0 0 34.214 34.214">
  <g id="facebook_1_" data-name="facebook (1)" transform="translate(0)">
    <path id="Path_286" data-name="Path 286" d="M32.325,0H1.887A1.888,1.888,0,0,0,0,1.889V32.327a1.888,1.888,0,0,0,1.889,1.887H32.325a1.888,1.888,0,0,0,1.889-1.888h0V1.887A1.888,1.888,0,0,0,32.325,0Zm0,0" transform="translate(0 0)" fill="#4267b2"/>
    <path id="Path_287" data-name="Path 287" d="M216.79,106.371V93.14h4.46l.668-5.179H216.79v-3.3c0-1.5.415-2.515,2.56-2.515h2.719V77.528a36.547,36.547,0,0,0-3.984-.2c-3.943,0-6.641,2.406-6.641,6.826v3.811H207V93.14h4.444v13.231Zm0,0" transform="translate(-193.167 -72.157)" fill="#fff"/>
  </g>
</svg>
