<svg xmlns="http://www.w3.org/2000/svg" width="34.214" height="34.214" viewBox="0 0 34.214 34.214">
  <g id="search_1_" data-name="search (1)" transform="translate(0)">
    <path id="Path_282" data-name="Path 282" d="M7.583,149.7,6.392,154.15l-4.353.092a17.137,17.137,0,0,1-.126-15.974h0l3.875.71,1.7,3.852a10.21,10.21,0,0,0,.1,6.874Z" transform="translate(0 -129.028)" fill="#fbbb00"/>
    <path id="Path_283" data-name="Path 283" d="M278.06,208.176a17.1,17.1,0,0,1-6.1,16.536h0l-4.881-.249-.691-4.313a10.2,10.2,0,0,0,4.387-5.206h-9.148v-6.768H278.06Z" transform="translate(-244.145 -194.265)" fill="#518ef8"/>
    <path id="Path_284" data-name="Path 284" d="M56.286,319.18h0a17.112,17.112,0,0,1-25.778-5.234l5.544-4.538a10.174,10.174,0,0,0,14.661,5.209Z" transform="translate(-28.471 -288.733)" fill="#28b446"/>
    <path id="Path_285" data-name="Path 285" d="M54.737,3.938,49.2,8.475a10.173,10.173,0,0,0-15,5.327L28.625,9.24h0a17.11,17.11,0,0,1,26.113-5.3Z" transform="translate(-26.712)" fill="#f14336"/>
  </g>
</svg>
