<svg xmlns="http://www.w3.org/2000/svg" width="678.35" height="402.658" viewBox="0 0 678.35 402.658">
  <g id="Group_164" data-name="Group 164" transform="translate(-20777.781 9215.273)">
    <path id="XMLID_12_" d="M62.067,0V100.173a30.784,30.784,0,0,0-11.723-2.264c-10.079,0-20.361,4.5-28.207,12.348C7.5,124.889,5.673,146.865,18.053,159.246a29.058,29.058,0,0,0,20.782,8.265c10.079,0,20.361-4.5,28.207-12.348A41.34,41.34,0,0,0,79.177,130.78a34.042,34.042,0,0,0,.2-3.774h.006V51.961h69.282v48.211a30.784,30.784,0,0,0-11.723-2.264c-10.079,0-20.361,4.5-28.207,12.348-14.632,14.632-16.464,36.608-4.083,48.989a29.058,29.058,0,0,0,20.782,8.265c10.079,0,20.361-4.5,28.207-12.348a41.336,41.336,0,0,0,12.134-24.384,34.04,34.04,0,0,0,.2-3.774h.006V0Zm86.6,34.641H79.387V17.32h69.282Z" transform="translate(21264.656 -9014.127)" fill="#071a0f" opacity="0.17"/>
    <path id="XMLID_12_2" data-name="XMLID_12_" d="M52.223,167.512V67.339A30.783,30.783,0,0,1,40.5,69.6c-10.079,0-20.361-4.5-28.207-12.348C-2.34,42.623-4.171,20.647,8.209,8.265A29.058,29.058,0,0,1,28.991,0C39.07,0,49.352,4.5,57.2,12.348A41.34,41.34,0,0,1,69.333,36.732a34.042,34.042,0,0,1,.2,3.774h.006V115.55h69.281V67.339A30.783,30.783,0,0,1,127.1,69.6c-10.079,0-20.361-4.5-28.207-12.348C84.262,42.623,82.431,20.647,94.811,8.265A29.058,29.058,0,0,1,115.593,0c10.079,0,20.361,4.5,28.207,12.348a41.336,41.336,0,0,1,12.134,24.384,34.04,34.04,0,0,1,.2,3.774h.006V167.512Zm86.6-34.641H69.543v17.32h69.281Z" transform="translate(20933.926 -8837.01) rotate(180)" fill="#071a0f" opacity="0.17"/>
    <g id="Group_162" data-name="Group 162" transform="translate(9797.538 -8615.615)">
      <g id="Report_analysis__Two_Color" data-name="Report analysis _Two Color" transform="translate(11223.453 -599.658)">
        <path id="Path_85" data-name="Path 85" d="M164.478,260.508s-3.694,4.84-1.291,9.373-1.1,8.421-4.694,5.227-5.033-16.47-5.033-16.47l8.179-4.727Z" transform="translate(104.341 108.795)" fill="#071a0f"/>
        <path id="Path_86" data-name="Path 86" d="M170.342,219.882s1.613,5.856-2.468,9.131-2.275,8.179,2.291,6.646,11.05-13.2,11.05-13.2l-5.678-7.533Z" transform="translate(68.02 84.894)" fill="#071a0f"/>
        <path id="Path_87" data-name="Path 87" d="M243.223,316.587l7.679-5.711L217.4,265.788V188.13H207.83v80.82Z" transform="translate(-69.791 68.461)" fill="#a5a5a5"/>
        <rect id="Rectangle_23" data-name="Rectangle 23" width="9.55" height="60.542" transform="translate(113.193 385.015) rotate(-144.17)" fill="#a5a5a5"/>
        <path id="Path_88" data-name="Path 88" d="M270.176,259.863s11.808-3.226,14.373-14.212c0,0-18.293-3.694-18.81,15.18Z" transform="translate(-196.858 103.552)" fill="#071a0f" opacity="0.58"/>
        <path id="Path_89" data-name="Path 89" d="M281.389,263.21s8.259-13.034,1-25.23c0,0-13.905,8.84-7.727,25.262Z" transform="translate(-209.522 99.027)" fill="#071a0f" opacity="0.73"/>
        <path id="Path_90" data-name="Path 90" d="M294.632,259.854S290.26,246.077,277.1,243.48c0,0-2.468,8.937,8.534,16.406Z" transform="translate(-224.878 102.4)" fill="#071a0f"/>
        <path id="Path_91" data-name="Path 91" d="M291.241,253.44,288.853,269.8l-15.067.064-2.226-16.341Z" transform="translate(-212.937 108.507)"/>
        <rect id="Rectangle_24" data-name="Rectangle 24" width="165.205" height="233.635" transform="translate(60.22 25.843)" fill="#e6e6e6"/>
        <rect id="Rectangle_25" data-name="Rectangle 25" width="165.205" height="31.392" transform="translate(60.22 245.67)" fill="#c9c9c9"/>
        <rect id="Rectangle_26" data-name="Rectangle 26" width="76.351" height="16.116" transform="translate(104.646 180.611)" fill="#a5a5a5" opacity="0.39"/>
        <rect id="Rectangle_27" data-name="Rectangle 27" width="76.351" height="16.116" transform="translate(104.646 207.212)" fill="#a5a5a5" opacity="0.13"/>
        <rect id="Rectangle_28" data-name="Rectangle 28" width="87.176" height="55.558" transform="translate(15.035 0)" fill="#feba38"/>
        <rect id="Rectangle_29" data-name="Rectangle 29" width="11.825" height="11.825" transform="translate(73.19 32.489)"/>
        <path id="Path_92" data-name="Path 92" d="M258.827,78.616s-57.219-3.985-52.589,65.172S133,209.089,133,209.089v15.97s106.469,13.986,116.148-45.733S258.827,78.616,258.827,78.616Z" transform="translate(42.997 1.284)" fill="#071a0f"/>
        <path id="Path_93" data-name="Path 93" d="M179.768,166.808s-6.162,17.471,16.422,19.89,4.84,18.374,20.568,36.006h27.021l4.033-57.574Z" transform="translate(-20.193 54.358)" opacity="0.08"/>
        <path id="Path_94" data-name="Path 94" d="M258.827,78.616s-57.219-3.985-52.589,65.172S133,209.089,133,209.089v15.97s106.469,13.986,116.148-45.733S258.827,78.616,258.827,78.616Z" transform="translate(42.997 1.284)" fill="#fff" opacity="0.46"/>
        <rect id="Rectangle_30" data-name="Rectangle 30" width="11.825" height="24.536" transform="translate(53.267 19.794)"/>
        <rect id="Rectangle_31" data-name="Rectangle 31" width="11.825" height="33.07" transform="translate(32.231 11.244)"/>
        <ellipse id="Ellipse_21" data-name="Ellipse 21" cx="44.362" cy="44.362" rx="44.362" ry="44.362" transform="translate(98.452 66.608)" fill="#fff"/>
        <path id="Path_95" data-name="Path 95" d="M275,70.361v44.362l-43.427-9.034S237.619,70.07,275,70.361Z" transform="translate(-132.183 -3.753)" fill="#feba38"/>
        <path id="Path_96" data-name="Path 96" d="M260.659,101.294l24.665,36.877s-24.859,18.922-53.654-3.323c0,0-19.713-14.277-14.519-42.588Z" transform="translate(-117.845 9.676)"/>
        <path id="Path_97" data-name="Path 97" d="M100.244,58.911s-2.1,8.872-1.468,15.067a4.581,4.581,0,0,0,5.049,4.065,10.1,10.1,0,0,0,8.921-6.453l3.872-7.4a8.179,8.179,0,0,0-2.307-9.163C109.745,50.619,101.244,53.442,100.244,58.911Z" transform="translate(240.054 -14.484)" fill="#f4a28c"/>
        <path id="Path_98" data-name="Path 98" d="M118.548,62.75l-2.807,29.715L99.48,89.754l8.566-20.536Z" transform="translate(237.35 -8.418)" fill="#f4a28c"/>
        <path id="Path_99" data-name="Path 99" d="M112.213,75.659h0a.855.855,0,0,1-.758.726,6.049,6.049,0,0,1-6.356-3.63,7.582,7.582,0,0,1,1.21-8.259,35.973,35.973,0,0,1-8.4-.645,8.211,8.211,0,0,1-2.662-.952L93.9,55.8s-2.726-7.308,1.484-8.195,5.42,3.92,9.114,1.1,4.6-3.952,7.711-1.613-1.081,4.372,4.4,5.114,5.275,3.017,4.985,5.517a4.388,4.388,0,0,1-1.436,2.129,27.956,27.956,0,0,0-7.953,15.809Z" transform="translate(244.572 -18.795)"/>
        <path id="Path_100" data-name="Path 100" d="M100.984,63.357s.581-3.452,3.226-2.807,1.694,5.614-1.92,5.614Z" transform="translate(247.751 -9.816)" fill="#f4a28c"/>
        <path id="Path_101" data-name="Path 101" d="M112.673,60.11l-3.033,3.049a1.452,1.452,0,0,0,.581,2.387l3.355,1.161Z" transform="translate(226.593 -10.037)" fill="#f4a28c"/>
        <path id="Path_102" data-name="Path 102" d="M105.035,69.083s2.1.371,6.775-1.613c0,0-1.484,5.775-9.34,7.6Z" transform="translate(239.264 -5.524)" fill="#ce8172" opacity="0.31"/>
        <path id="Path_103" data-name="Path 103" d="M204.948,146.645c8.647-24.327,11.825-36.054-28.827-59.413C156.763,76.1,126.242,74.439,96.414,80.779c-59.2,12.631-9.679,89.579-24.746,131.215l67.156,25.165S186.09,199.541,204.948,146.645Z" transform="translate(198.78 0.379)" fill="#071a0f"/>
        <path id="Path_104" data-name="Path 104" d="M188.543,185.9s-25.036,101.049-65.9,132.6l-11.825-5.953s44.411-70.189,27.634-105.485a159.713,159.713,0,0,1-6.033-15.18l-11.034-31.15Z" transform="translate(149.062 51.66)"/>
        <path id="Path_105" data-name="Path 105" d="M166.047,99.23S148.3,115.959,159.368,143.9c7.646,19.213-9.05,39.6-29.037,34.522-.6-.161-1.226-.323-1.855-.516-29.44-8.872-46.121-.274-46.121-.274s-.484,17.567-3,20.81l67.156,25.165,1.613-1.032,23.2-23.068s17.116-19.745,24.843-33.022S166.047,99.23,166.047,99.23Z" transform="translate(191.157 13.95)" opacity="0.08"/>
        <path id="Path_106" data-name="Path 106" d="M194.92,160.73s-80.755,2.129-59.768,48.976a283.293,283.293,0,0,0,25.294,45.169l13.147-4.727s-46.782-86.466,54.848-43.056Z" transform="translate(75.528 51.66)"/>
        <path id="Path_107" data-name="Path 107" d="M105.255,101.976c11.292-14.341,32.941-14.68,45.427-1.387,20.971,22.262,47.7,65.253,16.809,120.5C135.615,278.1,50.359,203.542,50.359,203.542l8.34-17.309s83.078,43.556,79.045,0C134.469,150.839,85.187,127.481,105.255,101.976Z" transform="translate(253.611 8.848)" fill="#071a0f"/>
        <path id="Path_108" data-name="Path 108" d="M105.255,101.976c11.292-14.341,32.941-14.68,45.427-1.387,20.971,22.262,47.7,65.253,16.809,120.5C135.615,278.1,50.359,203.542,50.359,203.542l8.34-17.309s83.078,43.556,79.045,0C134.469,150.839,85.187,127.481,105.255,101.976Z" transform="translate(253.611 8.848)" fill="#fff" opacity="0.46"/>
        <path id="Path_109" data-name="Path 109" d="M151.452,156.6,130.238,148s-10.615,14.519,15.454,20.536Z" transform="translate(158.277 43.854)" fill="#f4a28c"/>
        <path id="Path_110" data-name="Path 110" d="M102,165.677l3.275-50.137,60.3,14.777-4.807,42.249,27.537,7.162-1.629,6.695Z" transform="translate(163.528 23.951)" fill="#feba38"/>
        <ellipse id="Ellipse_22" data-name="Ellipse 22" cx="6.211" cy="6.211" rx="6.211" ry="6.211" transform="translate(289.451 164.285)" fill="#fff"/>
        <path id="Path_111" data-name="Path 111" d="M228.487,162.871s-10.26-3.226-16.422,2.387,16.422,6.985,16.422,6.985Z" transform="translate(-52.49 52.407)" fill="#f4a28c"/>
        <path id="Path_112" data-name="Path 112" d="M140.965,87.365s1.323-10-18.487-12.421-29.037-5.9-31.489,5.307C90.956,80.251,99.377,96.56,140.965,87.365Z" transform="translate(228.613 -2.464)" fill="#071a0f"/>
        <path id="Path_113" data-name="Path 113" d="M140.965,87.365s1.323-10-18.487-12.421-29.037-5.9-31.489,5.307C90.956,80.251,99.377,96.56,140.965,87.365Z" transform="translate(228.613 -2.464)" fill="#fff" opacity="0.46"/>
      </g>
    </g>
    <g id="Group_163" data-name="Group 163" transform="translate(10153 -8142.818)">
      <g id="Twitter_Two_Color" data-name="Twitter_Two Color" transform="translate(10536.755 -1023.402)">
        <path id="Path_59" data-name="Path 59" d="M352.579,37.17v60a7.91,7.91,0,0,1-7.91,7.924H262.352l-12.438,21.634V105.092h-7.17a7.924,7.924,0,0,1-7.924-7.924v-60a7.924,7.924,0,0,1,7.924-7.91H344.669A7.91,7.91,0,0,1,352.579,37.17Z" transform="translate(-11.307 -29.26)" fill="#e6e6e6"/>
        <path id="Path_61" data-name="Path 61" d="M316.074,45.336h0a9.394,9.394,0,0,1-1.4,2.04A16.5,16.5,0,0,1,313,49.124c-.475.461-.964.908-1.481,1.4a2.641,2.641,0,0,0-1.076,2.194,31.084,31.084,0,0,1-.294,4.109,36.129,36.129,0,0,1-1.635,6.988A30.748,30.748,0,0,1,306.739,68a33.4,33.4,0,0,1-10.887,12.662,34.7,34.7,0,0,1-3.186,1.887,31.377,31.377,0,0,1-7.589,2.8,24.5,24.5,0,0,1-4.486.671,10.089,10.089,0,0,0-1.943.126h-3.354a9.711,9.711,0,0,1-1.565-.084,25.3,25.3,0,0,1-3.718-.5,33.612,33.612,0,0,1-6.443-2.068,33.232,33.232,0,0,1-4.109-2.068,1.216,1.216,0,0,1-.489-.5h0a.377.377,0,0,1,.349-.126l1.9.112a23.759,23.759,0,0,0,6.429-.8,28.061,28.061,0,0,0,4.472-1.635,27.521,27.521,0,0,0,3.662-2.194c0-.1,0-.1-.1-.1a11.18,11.18,0,0,1-5.9-2.082,10.915,10.915,0,0,1-3.732-4.193c-.238-.461-.475-.936-.685-1.4,0-.154-.154-.321,0-.489s.307-.126.475-.1a10.79,10.79,0,0,0,2.6,0,7.841,7.841,0,0,0,1.5-.14,19.888,19.888,0,0,1-2.8-1.16,8.6,8.6,0,0,1-1.789-1.216,11.935,11.935,0,0,1-4.193-7.784,3.911,3.911,0,0,0-.1-1.062c-.1-.349.14-.615.573-.405a14.213,14.213,0,0,0,4.193,1.216,2.306,2.306,0,0,0-.447-.391,11.949,11.949,0,0,1-4.081-7.225,11.181,11.181,0,0,1,.81-6.583l.447-1.006c.168-.363.363-.363.629-.07.936,1.034,1.873,2.1,2.907,3.047a33.877,33.877,0,0,0,14.213,7.826,34.757,34.757,0,0,0,5.492.964h.671c.224,0,.335-.1.28-.335a12.052,12.052,0,0,1-.14-2.348,11.628,11.628,0,0,1,2.865-7.547,12.355,12.355,0,0,1,5.982-3.731c.531-.154,1.09-.1,1.621-.21h2.711a2.809,2.809,0,0,1,.95.112,8.707,8.707,0,0,1,2.991,1.006,13.037,13.037,0,0,1,2.362,1.509,1.4,1.4,0,0,1,.266.224,1.4,1.4,0,0,0,1.523.433,23.605,23.605,0,0,0,4.319-1.509,13.684,13.684,0,0,0,1.873-.922.294.294,0,0,1,.363,0c.126.112.07.252,0,.391a12.074,12.074,0,0,1-1.873,3.368,15.371,15.371,0,0,1-2.446,2.418,32.369,32.369,0,0,0,5.423-1.509C315.767,45.238,315.935,45.169,316.074,45.336Z" transform="translate(-1.706 -25.086)" fill="#071a0f"/>
        <path id="Path_62" data-name="Path 62" d="M193.89,69.343s42.36-10.845,62.583,44.722,74.658,46.8,74.658,46.8l-.321,14.744s-40.683,8.693-77.243-19.873S193.89,69.343,193.89,69.343Z" transform="translate(-27.58 -13.664)" fill="#071a0f"/>
        <path id="Path_63" data-name="Path 63" d="M193.89,69.343s42.36-10.845,62.583,44.722,74.658,46.8,74.658,46.8l-.321,14.744s-40.683,8.693-77.243-19.873S193.89,69.343,193.89,69.343Z" transform="translate(-27.58 -13.664)" fill="#fff" opacity="0.44"/>
        <path id="Path_64" data-name="Path 64" d="M223.525,257.242s2.516,4.738,7.072,4.472,6.387,3.969,2.488,5.7-15.094-1.971-15.094-1.971l-.811-8.316Z" transform="translate(-18.32 61.333)" fill="#071a0f"/>
        <path id="Path_65" data-name="Path 65" d="M212.559,42.492s.853,9.5-.741,15.834a4.808,4.808,0,0,1-5.842,3.466c-3.172-.853-7.211-2.907-8.288-7.952l-2.865-8.316a8.567,8.567,0,0,1,3.745-9.168C203.936,32.485,212.335,36.678,212.559,42.492Z" transform="translate(-27.297 -27.035)" fill="#f4a28c"/>
        <path id="Path_66" data-name="Path 66" d="M196.506,43.57,191.67,74.442l17.2,1.453L205.492,52.85Z" transform="translate(-28.462 -23.571)" fill="#f4a28c"/>
        <path id="Path_67" data-name="Path 67" d="M210.483,44.288a37.832,37.832,0,0,1-8.791-.657,7.952,7.952,0,0,1,0,8.735,6.485,6.485,0,0,1-7.812,2.6l.126-12.257a9.783,9.783,0,0,1,4.905-8.679,36.84,36.84,0,0,1,4.081-2c3.228-1.3,8.8-.7,11.4,1.691a5.814,5.814,0,0,1,2.012,4.011,8.818,8.818,0,0,1-.545,3.047C214.843,43.659,213.418,44.134,210.483,44.288Z" transform="translate(-27.584 -28.425)"/>
        <path id="Path_68" data-name="Path 68" d="M201.548,47.146s-.07-3.662-2.8-3.382-2.669,5.59,1.076,6.079Z" transform="translate(-26.405 -23.5)" fill="#f4a28c"/>
        <path id="Path_69" data-name="Path 69" d="M208.159,44.63l2.669,3.662a1.537,1.537,0,0,1-.95,2.4l-3.648.685Z" transform="translate(-22.674 -23.149)" fill="#f4a28c"/>
        <path id="Path_70" data-name="Path 70" d="M203.83,54.732a11.18,11.18,0,0,1-5.59-3.312s.252,5.716,6.555,11.348Z" transform="translate(-25.85 -20.45)" fill="#ce8172" opacity="0.31"/>
        <path id="Path_71" data-name="Path 71" d="M201.938,65.67l21.425,1.859s42.472,12.48,40.753,52.409-5.59,88.8-5.59,88.8L201.407,216.2S106.484,86.927,201.938,65.67Z" transform="translate(-41.302 -14.785)" fill="#071a0f"/>
        <path id="Path_72" data-name="Path 72" d="M195.216,84.63s11.7,9.042,10.286,33.3-7.183,51.808,17.847,49.013,32.144-10.775,32.144-10.775l-3.131,44.974-57.118,7.463-5.143-7.463S152.814,118.409,195.216,84.63Z" transform="translate(-35.111 -7.247)" opacity="0.08"/>
        <path id="Path_73" data-name="Path 73" d="M246.561,168l15.373,12.76a33.206,33.206,0,0,1-4.947,54.505L227.638,251.84l-9.783-7.128,22-18.252a11.642,11.642,0,0,0-1.272-18.839l-7.84-4.891a35.428,35.428,0,0,0-14.325-5.143c-8.5-1.076-22.655-5.409-26.875-22.068Z" transform="translate(-29.309 25.898)"/>
        <path id="Path_74" data-name="Path 74" d="M204.234,95.845c-1.006-19.566-26.065-27.211-37.594-11.306-7.1,9.783-12.033,23.759-8.567,42.905,8.567,47.517,13.556,84.567,38.894,82.079s73.149-58.167,73.149-58.167L255.483,141.7s-29.614,32.144-48.523,32.479C193.543,174.444,205.939,129.26,204.234,95.845Z" transform="translate(-42.271 -10.691)" fill="#071a0f"/>
        <rect id="Rectangle_22" data-name="Rectangle 22" width="15.289" height="27.546" transform="translate(236.07 132.35) rotate(-162.06)" fill="#feba38"/>
        <path id="Path_75" data-name="Path 75" d="M204.234,95.845c-1.006-19.566-26.065-27.211-37.594-11.306-7.1,9.783-12.033,23.759-8.567,42.905,8.567,47.517,13.556,84.567,38.894,82.079s73.149-58.167,73.149-58.167L255.483,141.7s-29.614,32.144-48.523,32.479C193.543,174.444,205.939,129.26,204.234,95.845Z" transform="translate(-42.271 -10.691)" fill="#fff" opacity="0.44"/>
        <path id="Path_76" data-name="Path 76" d="M238.151,132.725s10.51-8.064,7.17-14.129-16.7,7.854-16.7,7.854Z" transform="translate(-13.772 5.648)" fill="#f4a28c"/>
        <path id="Path_77" data-name="Path 77" d="M189.47,173.34l38.727,117.1,9.713-.1s-13.193-78.152-11.767-110.981Z" transform="translate(-29.337 28.021)"/>
        <path id="Path_78" data-name="Path 78" d="M292.064,136.811s14.856-7.9,14.423.713-14.647,9.126-14.647,9.126Z" transform="translate(11.362 12.183)" fill="#f4a28c"/>
        <path id="Path_79" data-name="Path 79" d="M301.124,248.3s15.471-4.193,18.9-18.532c0,0-23.926-4.933-24.709,19.776Z" transform="translate(12.741 50.294)" fill="#071a0f" opacity="0.58"/>
        <path id="Path_80" data-name="Path 80" d="M301.217,251.191s10.873-17.008,1.4-33.01c0,0-18.252,11.488-10.258,33.01Z" transform="translate(10.762 45.848)" fill="#071a0f" opacity="0.73"/>
        <path id="Path_81" data-name="Path 81" d="M302.722,247.923s-5.59-18.043-22.85-21.522c0,0-3.284,11.684,11.069,21.522Z" transform="translate(6.475 49.116)" fill="#071a0f"/>
        <path id="Path_82" data-name="Path 82" d="M311.481,241.55l-3.228,21.411h-19.72L285.71,241.55Z" transform="translate(8.925 55.139)"/>
      </g>
      <path id="Path_83" data-name="Path 83" d="M215.609,24.979S214.672,6.933,190.29-3.58c-24.717-10.714-11.336-39.99-14.528-52.176s13.381-35.125,13.381-35.125l18.163-66.928" transform="translate(10502.009 -840.893)" fill="none" stroke="#fff" stroke-miterlimit="10" stroke-width="1"/>
      <circle id="Ellipse_19" data-name="Ellipse 19" cx="2.59" cy="2.59" r="2.59" transform="translate(10707.385 -1002.687)" fill="#fff"/>
      <path id="Path_84" data-name="Path 84" d="M212.33,168.545l11.278-2.925,3.536,8.344-11.25,2.217Z" transform="translate(10494.137 -983.933)" fill="#feba38"/>
    </g>
    <ellipse id="Ellipse_130" data-name="Ellipse 130" cx="88" cy="9" rx="88" ry="9" transform="translate(20804 -8830.615)" fill="#071a0f"/>
    <ellipse id="Ellipse_131" data-name="Ellipse 131" cx="118.5" cy="9" rx="118.5" ry="9" transform="translate(21210 -8830.615)" fill="#071a0f"/>
  </g>
</svg>
