<svg xmlns="http://www.w3.org/2000/svg" xmlns:xlink="http://www.w3.org/1999/xlink" width="447.52" height="368.391" viewBox="0 0 447.52 368.391">
  <defs>
    <clipPath id="clip-path">
      <path id="blob_8_" data-name="blob (8)" d="M242.739,73.027c21.918,61.106,24.575,110.588,3.985,149.443-20.922,38.855-65.091,67.083-124.2,75.718C63.739,306.823-9.986,295.531-41.2,250.7S-60.8,127.491-23.934,57.751s99.3-130.846,151.1-124.868S220.489,11.922,242.739,73.027Z" transform="translate(614.051 4200.925)" fill="#f06"/>
    </clipPath>
  </defs>
  <g id="Group_172" data-name="Group 172" transform="translate(-19233.543 9058.597)">
    <path id="blob_8_2" data-name="blob (8)" d="M363.075,73.027c30.653,61.106,34.368,110.588,5.573,149.443-29.26,38.855-91.03,67.083-173.7,75.718C112.743,306.823,9.637,295.531-34.02,250.7S-61.422,127.491-9.869,57.751,129-73.095,201.451-67.117,331.958,11.922,363.075,73.027Z" transform="translate(19292.771 -8991.075)" fill="#d2d2d2"/>
    <g id="Group_171" data-name="Group 171" transform="translate(18742.48 -13192)" clip-path="url(#clip-path)">
      <g id="Group_170" data-name="Group 170" transform="translate(564.822 4181.063)">
        <path id="Path_373" data-name="Path 373" d="M189.565,70.07S164.282,71.33,162.4,85.148s-39.573,42.645-39.573,42.645l12.568,20.67S199.062,124,189.565,70.07Z" transform="translate(-66.885 -17.319)" fill="#f4a28c"/>
        <path id="Path_374" data-name="Path 374" d="M189.565,70.07S164.282,71.33,162.4,85.148s-39.573,42.645-39.573,42.645l12.568,20.67S199.062,124,189.565,70.07Z" transform="translate(-66.885 -17.319)" opacity="0.08"/>
        <path id="Path_375" data-name="Path 375" d="M171.325,240.611s-.99,6.425-5.626,8.743-1.665,9,5.165,4.287a45.556,45.556,0,0,0,6-4.906,13.592,13.592,0,0,1,6.2-3.229,2.25,2.25,0,0,0,1.587-1.98c.686-3.556-7.471-6.245-7.471-6.245Z" transform="translate(-61.799 3.615)" fill="#071a0f"/>
        <path id="Path_376" data-name="Path 376" d="M178.023,50.865S166.771,75.136,183,79.378,194.327,42.46,194.327,42.46Z" transform="translate(-60.451 -20.775)"/>
        <path id="Path_377" data-name="Path 377" d="M180.108,35.346s-3.016,8.585-3.038,14.808a4.579,4.579,0,0,0,4.591,4.58c3.128,0,7.359-1,9.53-5.4l4.6-6.976a8.169,8.169,0,0,0-1.316-9.35C190.426,28.111,181.683,29.979,180.108,35.346Z" transform="translate(-60.095 -22.314)" fill="#f4a28c"/>
        <path id="Path_378" data-name="Path 378" d="M186.419,70.309s-57.835,22.886-31.663,58.206a29.559,29.559,0,0,1,4.838,9.8c3.173,11.747,13.626,29.379,24.642,47.19l56.327-15.944s-11.038-40.788-7.179-65.464c5.93-37.9-33.081-35.916-33.081-35.916Z" transform="translate(-63.74 -17.557)" fill="#071a0f"/>
        <path id="Path_379" data-name="Path 379" d="M193.336,42.46l5.187,29.367-16.383,1.7,2.723-21.491Z" transform="translate(-59.46 -20.775)" fill="#f4a28c"/>
        <path id="Path_380" data-name="Path 380" d="M178.764,39.66l-3.376,2.768a1.463,1.463,0,0,0,.315,2.442l3.207,1.5Z" transform="translate(-60.371 -21.126)" fill="#f4a28c"/>
        <path id="Path_381" data-name="Path 381" d="M184.576,51.856a11.1,11.1,0,0,0,5.075-3.106s1.733,6.29-5.851,9.26Z" transform="translate(-59.252 -19.988)" fill="#ce8172" opacity="0.31"/>
        <path id="Path_382" data-name="Path 382" d="M186.318,39.978l3.949.923s-2.464,16.754,4.5,30.38c4.411,8.608,15.989,10.4,23.134,3.882L221,72.339a6.9,6.9,0,0,0-1.823-11.376c-6.594-3.027-13.716-8.9-13.682-20.163,0-13.255-12.67-19.938-21.019-16.878S177.688,38.83,186.318,39.978Z" transform="translate(-59.858 -23.188)"/>
        <path id="Path_383" data-name="Path 383" d="M188.923,89.07s-8.5,24.327,8.045,39.292,3.376,48.6,3.376,48.6l35.365-10.014s-8.63-32.552-7.876-49.013S188.923,89.07,188.923,89.07Z" transform="translate(-58.884 -14.94)" opacity="0.08"/>
        <path id="Path_384" data-name="Path 384" d="M187.89,44.335s1.125-3.882,3.927-2.835,1.328,6.672-2.79,6.177Z" transform="translate(-58.74 -20.918)" fill="#f4a28c"/>
        <path id="Path_385" data-name="Path 385" d="M197.15,184.96l21.21,27.308a137.949,137.949,0,0,0,28.321,27.342L277.995,262.2l4.309-6.616-12.04-12.377a153.972,153.972,0,0,1-34.116-54.189l-4.951-13.5Z" transform="translate(-57.581 -4.117)" fill="#f4a28c"/>
        <path id="Path_386" data-name="Path 386" d="M197.15,184.96l21.21,27.308a137.949,137.949,0,0,0,28.321,27.342L277.995,262.2l4.309-6.616-12.04-12.377a153.972,153.972,0,0,1-34.116-54.189l-4.951-13.5Z" transform="translate(-57.581 -4.117)" opacity="0.08"/>
        <path id="Path_387" data-name="Path 387" d="M193.59,107.092c-12.523-13.4-1.226-35.68,16.878-32.957a19.86,19.86,0,0,1,5.9,1.845c7.764,3.859,27.083,13.84,42.858,22.031A40.192,40.192,0,0,1,280.815,136.4L278.5,170.778s9.272,20.523.191,23.877-11.848-19.061-11.848-19.061l-4.748-30.3a23.1,23.1,0,0,0-20.636-19.522C226.524,124.42,205.7,120.077,193.59,107.092Z" transform="translate(-58.691 -16.838)" fill="#f4a28c"/>
        <path id="Path_388" data-name="Path 388" d="M169.948,179h0a23.01,23.01,0,0,0-14.11,30.988L172.3,248.345l6.751-4.039-8.428-32.777a11.713,11.713,0,0,1,7.438-13.975l14.121-5.052Z" transform="translate(-62.987 -3.682)" fill="#f4a28c"/>
        <path id="Path_389" data-name="Path 389" d="M167.1,180.47l9.8,21.964s24.169-7.145,47.787-7.516c7.4-.113,14.729-.619,18.262-3.623-1.53,1.305,9.609-16.068-4.748-33.024l-56.327,15.944A71.64,71.64,0,0,0,167.1,180.47Z" transform="translate(-61.343 -6.277)"/>
        <path id="Path_390" data-name="Path 390" d="M140.12,78.55s.405-9.553,11.466-7.291-5.772,17.508-5.772,17.508,9.71,43.961-5.761,56.755S109.189,129.892,140.12,78.55Z" transform="translate(-66.96 -17.213)" fill="#f4a28c"/>
        <path id="Path_391" data-name="Path 391" d="M269,253.636s4.028,5.221,2.5,10.228,5.446,7.539,6.751-.788a47.684,47.684,0,0,0,.608-7.876,13.5,13.5,0,0,1,1.969-6.807,2.25,2.25,0,0,0-.349-2.554c-2.127-2.993-8.81-.63-8.81-.63Z" transform="translate(-48.586 4.496)" fill="#071a0f"/>
        <path id="Path_392" data-name="Path 392" d="M269,253.636s4.028,5.221,2.5,10.228,5.446,7.539,6.751-.788a47.684,47.684,0,0,0,.608-7.876,13.5,13.5,0,0,1,1.969-6.807,2.25,2.25,0,0,0-.349-2.554c-2.127-2.993-8.81-.63-8.81-.63Z" transform="translate(-48.586 4.496)" opacity="0.08"/>
        <path id="Path_393" data-name="Path 393" d="M200.72,192.1l19,23.561,25.542-7.066-6.65-22.02S214.4,184.17,200.72,192.1Z" transform="translate(-57.134 -2.776)"/>
        <path id="Path_394" data-name="Path 394" d="M191.659,46.66s-19.511,27-15.753,41.351-11.995,48.811,17.1,61.424c28.7,12.377,29.806,33.621,29.806,33.621" transform="translate(-60.361 -20.249)" fill="none" stroke="#fff" stroke-miterlimit="10" stroke-width="1"/>
        <ellipse id="Ellipse_132" data-name="Ellipse 132" cx="3.049" cy="3.049" rx="3.049" ry="3.049" transform="translate(128.249 23.361)"/>
        <path id="Path_395" data-name="Path 395" d="M212.33,169.063l13.277-3.443,4.163,9.823-13.243,2.61Z" transform="translate(-55.681 -5.357)" fill="#feba38"/>
        <path id="Path_396" data-name="Path 396" d="M255.92,150.36l14.751,1.316-.641,9.5-12.3.72Z" transform="translate(-50.224 -7.267)" fill="#071a0f"/>
        <path id="Path_397" data-name="Path 397" d="M177.071,44.78s-7.708,21.379,0,30.7" transform="translate(-60.524 -20.485)" fill="none" stroke="#e8e8e8" stroke-miterlimit="10" stroke-width="1"/>
      </g>
    </g>
    <ellipse id="Ellipse_133" data-name="Ellipse 133" cx="137.5" cy="15" rx="137.5" ry="15" transform="translate(19339.303 -8731)" fill="#828282"/>
  </g>
</svg>
