<svg xmlns="http://www.w3.org/2000/svg" xmlns:xlink="http://www.w3.org/1999/xlink" width="517.582" height="348.001" viewBox="0 0 517.582 348.001">
  <defs>
    <clipPath id="clip-path">
      <path id="blob_6_" data-name="blob (6)" d="M456.253,47.033c26.831,66.212-41.978,179.6-126.366,231.527-84.388,51.5-183.923,41.112-263.551-12.983S-73.445,113.678-50.509,52.659,78.454-33.028,192.7-35.624,429.422-19.179,456.253,47.033Z" transform="translate(93.678 3047.669)" fill="#f06"/>
    </clipPath>
  </defs>
  <g id="Group_168" data-name="Group 168" transform="translate(-442.24 -3201.545)">
    <path id="blob_6_2" data-name="blob (6)" d="M456.253,47.033c26.831,66.212-41.978,179.6-126.366,231.527-84.388,51.5-183.923,41.112-263.551-12.983S-73.445,113.678-50.509,52.659,78.454-33.028,192.7-35.624,429.422-19.179,456.253,47.033Z" transform="translate(497.68 3237.398)" fill="#d2d2d2"/>
    <g id="Mask_Group_21" data-name="Mask Group 21" transform="translate(404.002 189.729)" clip-path="url(#clip-path)">
      <g id="Group_154" data-name="Group 154" transform="translate(102.297 3039.201)">
        <path id="Path_120" data-name="Path 120" d="M319.578,132.09s-17.823,1.582-17.823,16.744c0,10.794,1.581,36.714-2.849,53.7a14.748,14.748,0,0,1-20.083,9.853L237.076,194.66s-12.916-5.887-17.572-2.51,6.351,6.941,6.351,6.941-3.766,13.33,7.154,12.087,48.111,41.759,78.109,22.593S342.246,154.382,319.578,132.09Z" transform="translate(11.938 -18.208)" fill="#f4a28c"/>
        <path id="Path_121" data-name="Path 121" d="M319.578,132.09s-17.823,1.582-17.823,16.744c0,10.794,1.581,36.714-2.849,53.7a14.748,14.748,0,0,1-20.083,9.853L237.076,194.66s-12.916-5.887-17.572-2.51,6.351,6.941,6.351,6.941-3.766,13.33,7.154,12.087,48.111,41.759,78.109,22.593S342.246,154.382,319.578,132.09Z" transform="translate(11.938 -18.208)" opacity="0.08"/>
        <path id="Path_122" data-name="Path 122" d="M115.89,126.08s26.873,9.64,33.086,46.918-.063,53.972,37.592,53.119l27.2-1.669v11.987l-84.523.138Z" transform="translate(-14.208 -19.742)" fill="#071a0f"/>
        <path id="Path_123" data-name="Path 123" d="M115.89,126.08s26.873,9.64,33.086,46.918-.063,53.972,37.592,53.119l27.2-1.669v11.987l-84.523.138Z" transform="translate(-14.208 -19.742)" opacity="0.08"/>
        <path id="Path_124" data-name="Path 124" d="M103.706,89.048s4.017,8.5,4.657,14.9a4.719,4.719,0,0,1-4.23,5.184c-3.213.3-7.657-.238-10.355-4.531l-5.5-6.728a8.435,8.435,0,0,1,.364-9.753C92.334,82.709,101.522,83.751,103.706,89.048Z" transform="translate(-21.605 -30.343)" fill="#f4a28c"/>
        <path id="Path_125" data-name="Path 125" d="M90.127,96.39l-2.2,30.7,17.008.013-5.1-21.79Z" transform="translate(-21.343 -27.318)" fill="#f4a28c"/>
        <path id="Path_126" data-name="Path 126" d="M102,92.165a37.9,37.9,0,0,1-8.359,2.422,7.832,7.832,0,0,1,2.987,8.071,6.4,6.4,0,0,1-6.351,5.021L86.236,96.294A9.577,9.577,0,0,1,87.83,86.6a37.4,37.4,0,0,1,3.088-3.251c2.786-2.51,8.359-2.1,10.468-5.385a2.259,2.259,0,0,1,3.878.151c1.795,3.251,3.176,8.9-.778,12.552A8.962,8.962,0,0,1,102,92.165Z" transform="translate(-21.946 -32.281)"/>
        <path id="Path_127" data-name="Path 127" d="M96.046,97.392s-1.255-3.364-3.765-2.159-.577,6.075,3.05,5.247Z" transform="translate(-20.523 -27.68)" fill="#f4a28c"/>
        <path id="Path_128" data-name="Path 128" d="M102.08,92.5l3.766,2.51a1.506,1.506,0,0,1-.063,2.51L102.645,99.4Z" transform="translate(-17.733 -28.311)" fill="#f4a28c"/>
        <path id="Path_129" data-name="Path 129" d="M98.678,104.538a11.435,11.435,0,0,1-5.548-2.648s-1.1,6.652,7,8.887Z" transform="translate(-20.029 -25.915)" fill="#ce8172" opacity="0.31"/>
        <path id="Path_130" data-name="Path 130" d="M306.77,90.678s-3.678,7.795-4.305,13.656a4.33,4.33,0,0,0,3.878,4.757c2.962.276,7.029-.213,9.514-4.155l5.021-6.163a7.719,7.719,0,0,0-.326-8.937C317.213,84.867,308.778,85.858,306.77,90.678Z" transform="translate(33.394 -29.828)" fill="#f4a28c"/>
        <path id="Path_131" data-name="Path 131" d="M318.393,97.42l2.021,28.179H304.8l4.682-19.982Z" transform="translate(33.995 -27.055)" fill="#f4a28c"/>
        <path id="Path_132" data-name="Path 132" d="M305.072,93.85l-3.4,2.284a1.381,1.381,0,0,0,0,2.335l2.874,1.72Z" transform="translate(33.033 -27.966)" fill="#f4a28c"/>
        <path id="Path_133" data-name="Path 133" d="M308.693,104.9a10.568,10.568,0,0,0,5.083-2.435s1.017,6.1-6.426,8.159Z" transform="translate(34.646 -25.769)" fill="#ce8172" opacity="0.31"/>
        <rect id="Rectangle_36" data-name="Rectangle 36" width="8.435" height="45.01" transform="translate(155.265 166.912)" fill="#feba38"/>
        <rect id="Rectangle_37" data-name="Rectangle 37" width="8.435" height="45.01" transform="translate(155.415 166.912)" fill="#fff" opacity="0.46"/>
        <path id="Path_134" data-name="Path 134" d="M161.338,204.44,147.77,216.477h35.873l-13.87-12.037Z" transform="translate(-6.073 0.253)" fill="#feba38"/>
        <path id="Path_135" data-name="Path 135" d="M161.218,204.44,147.65,216.477h35.873L169.666,204.44Z" transform="translate(-6.105 0.253)" opacity="0.08"/>
        <path id="Path_136" data-name="Path 136" d="M96.493,119.87h15.614s23.748,0,38.4,32.2c10.493,23.057.628,85.992.628,85.992H66.406S22.412,131.392,96.493,119.87Z" transform="translate(-30.144 -21.327)" fill="#071a0f"/>
        <rect id="Rectangle_38" data-name="Rectangle 38" width="26.032" height="48.261" transform="translate(146.616 128.241)" fill="#feba38"/>
        <rect id="Rectangle_39" data-name="Rectangle 39" width="8.435" height="45.01" transform="translate(268.017 166.912)" fill="#feba38"/>
        <rect id="Rectangle_40" data-name="Rectangle 40" width="8.435" height="45.01" transform="translate(268.167 166.912)" fill="#fff" opacity="0.46"/>
        <path id="Path_137" data-name="Path 137" d="M251.168,204.44,237.6,216.477h35.873L259.6,204.44Z" transform="translate(16.848 0.253)" fill="#feba38"/>
        <path id="Path_138" data-name="Path 138" d="M251.048,204.44,237.48,216.477h35.873l-13.87-12.037Z" transform="translate(16.818 0.253)" opacity="0.08"/>
        <rect id="Rectangle_41" data-name="Rectangle 41" width="26.032" height="48.261" transform="translate(259.368 128.241)" fill="#feba38"/>
        <path id="Path_139" data-name="Path 139" d="M91.211,139.45s17.271,14.271,6.941,36-20.861,40.253,7.882,37.417l36.048-14.434s6.9-3.766,7.217,2.2,3.138,15.69-14.434,20.4S118.549,233.2,118.549,233.2l-51.776-.176L52,196.861Z" transform="translate(-30.512 -16.33)" opacity="0.08"/>
        <path id="Path_140" data-name="Path 140" d="M95.674,145.465c-2.636-13.807-20.2-18.376-29.81-8.133A94.665,94.665,0,0,0,42.3,182.079c-8.372,38.5,4.594,50.646,20.083,52.943s76.98-23.647,76.98-23.647l-4.029-11.535S88.532,217.8,73.056,204.421C60.856,193.928,100.331,169.715,95.674,145.465Z" transform="translate(-33.656 -18.292)" fill="#071a0f"/>
        <path id="Path_141" data-name="Path 141" d="M95.674,145.465c-2.636-13.807-20.2-18.376-29.81-8.133A94.665,94.665,0,0,0,42.3,182.079c-8.372,38.5,4.594,50.646,20.083,52.943s76.98-23.647,76.98-23.647l-4.029-11.535S88.532,217.8,73.056,204.421C60.856,193.928,100.331,169.715,95.674,145.465Z" transform="translate(-33.656 -18.292)" fill="#fff" opacity="0.2"/>
        <path id="Path_142" data-name="Path 142" d="M115.89,187.158s4.443-6.088,11.3-5.673,4.393,4.644,1.054,5.673c0,0,7.732,7.92-8.372,11.485Z" transform="translate(-14.208 -5.61)" fill="#f4a28c"/>
        <path id="Path_143" data-name="Path 143" d="M311.193,120.171s-31.128,18.915-31.442,35.233a33.2,33.2,0,0,0,6.15,19.92,38.17,38.17,0,0,1,6.539,15.853l.816,47.182,68.231,1.456S405.9,146.931,343.765,118.69Z" transform="translate(27.602 -21.628)" fill="#071a0f"/>
        <path id="Path_144" data-name="Path 144" d="M350.863,134.51s-26.672,3.54-20.7,46.052c2.862,20.346,6.075,31.053-26.3,21.338L290,193.8l.7,40.517,68.231,1.456,10.041-29.383Z" transform="translate(30.219 -17.591)" opacity="0.08"/>
        <path id="Path_145" data-name="Path 145" d="M304.8,120.107s.59,12.953,9.677,11.384,13.493-3.991,15.062-12.552Z" transform="translate(33.995 -21.564)" fill="#fff"/>
        <path id="Path_146" data-name="Path 146" d="M303.25,92.962l11.836,5.021a57.373,57.373,0,0,0,3.64,26.472,14.623,14.623,0,0,0,22.254,6.15h0a6.539,6.539,0,0,0-.615-10.895c-5.912-3.489-12.05-9.728-10.92-20.346C331.541,79.645,308.522,72.566,303.25,92.962Z" transform="translate(33.6 -31.321)"/>
        <path id="Path_147" data-name="Path 147" d="M344.049,147.473c-.628-14.723,19.643-19.857,25.932-6.527a62.971,62.971,0,0,1,5.5,19.719c3.665,31.266,9.59,65.884-16.405,76.264s-71.143-44.345-71.143-44.345l8.686-8.309s34.254,26.961,48.412,24.8C354.793,207.57,345.166,174.245,344.049,147.473Z" transform="translate(29.691 -17.914)" fill="#f4a28c"/>
        <ellipse id="Ellipse_25" data-name="Ellipse 25" cx="36.94" cy="36.94" rx="36.94" ry="36.94" transform="translate(146.504)"/>
        <path id="Path_148" data-name="Path 148" d="M182.974,111.387s-8-42.789,29.81-55.227a37.542,37.542,0,0,1,3.64,8.786L193.63,109.141A36.738,36.738,0,0,1,182.974,111.387Z" transform="translate(2.729 -37.583)" opacity="0.24"/>
        <ellipse id="Ellipse_26" data-name="Ellipse 26" cx="36.94" cy="36.94" rx="36.94" ry="36.94" transform="translate(195.129 25.128)"/>
        <path id="Path_149" data-name="Path 149" d="M312,96.293s1.255-3.1,3.464-1.983.527,5.573-2.812,4.82Z" transform="translate(35.833 -27.911)" fill="#f4a28c"/>
        <path id="Path_150" data-name="Path 150" d="M298.991,175.765a26.12,26.12,0,0,0-9.188-11.51c-12.3-8.272-6.9,2.749-3.878,5.46,0,0-12.012,4.569,3.213,16.179Z" transform="translate(28.031 -10.773)" fill="#f4a28c"/>
        <rect id="Rectangle_42" data-name="Rectangle 42" width="18.137" height="7.318" transform="matrix(0.681, -0.733, 0.733, 0.681, 315.135, 176.733)"/>
        <path id="Path_151" data-name="Path 151" d="M193.87,208.03s17.987-5.673,16.1,7.832h-16.1Z" transform="translate(5.69 0.867)" fill="#f4a28c"/>
        <path id="Path_152" data-name="Path 152" d="M160.05,84.29l-25.43,18.338,35.308-6.339Z" transform="translate(-9.429 -30.406)"/>
        <path id="Path_153" data-name="Path 153" d="M247.651,96.67l25.43,18.338-35.32-6.326Z" transform="translate(16.889 -27.247)"/>
        <ellipse id="Ellipse_27" data-name="Ellipse 27" cx="5.661" cy="5.661" rx="5.661" ry="5.661" transform="translate(209.852 56.709)" fill="#feba38"/>
        <ellipse id="Ellipse_28" data-name="Ellipse 28" cx="5.661" cy="5.661" rx="5.661" ry="5.661" transform="translate(227.738 56.709)" fill="#feba38"/>
        <ellipse id="Ellipse_29" data-name="Ellipse 29" cx="5.661" cy="5.661" rx="5.661" ry="5.661" transform="translate(244.997 56.709)" fill="#feba38"/>
        <ellipse id="Ellipse_30" data-name="Ellipse 30" cx="5.661" cy="5.661" rx="5.661" ry="5.661" transform="translate(160.21 32.07)" fill="#071a0f"/>
        <ellipse id="Ellipse_31" data-name="Ellipse 31" cx="5.661" cy="5.661" rx="5.661" ry="5.661" transform="translate(178.096 32.07)" fill="#071a0f"/>
        <ellipse id="Ellipse_32" data-name="Ellipse 32" cx="5.661" cy="5.661" rx="5.661" ry="5.661" transform="translate(195.355 32.07)" fill="#071a0f"/>
        <rect id="Rectangle_43" data-name="Rectangle 43" width="26.032" height="31.906" transform="translate(146.616 128.241)" opacity="0.08"/>
        <rect id="Rectangle_44" data-name="Rectangle 44" width="26.032" height="31.906" transform="translate(259.368 128.241)" opacity="0.08"/>
        <path id="Path_154" data-name="Path 154" d="M166.66,205.994l34.153-1.544v12.025H178.823Z" transform="translate(-1.254 0.256)" opacity="0.08"/>
        <path id="Path_155" data-name="Path 155" d="M86.911,98.618S80.635,87.435,91.053,82.05a14.937,14.937,0,0,0,.4,16.254Z" transform="translate(-22.081 -30.977)" fill="#071a0f"/>
        <path id="Path_156" data-name="Path 156" d="M86.911,98.618S80.635,87.435,91.053,82.05a14.937,14.937,0,0,0,.4,16.254Z" transform="translate(-22.081 -30.977)" opacity="0.08"/>
        <ellipse id="Ellipse_33" data-name="Ellipse 33" cx="6.728" cy="6.728" rx="6.728" ry="6.728" transform="translate(62.646 65.495)" fill="#071a0f"/>
        <path id="Path_157" data-name="Path 157" d="M320.121,97.058s6.276-11.184-4.142-16.568a14.924,14.924,0,0,1-.389,16.2Z" transform="translate(36.749 -31.375)" fill="#071a0f"/>
        <path id="Path_158" data-name="Path 158" d="M320.121,97.058s6.276-11.184-4.142-16.568a14.924,14.924,0,0,1-.389,16.2Z" transform="translate(36.749 -31.375)" opacity="0.08"/>
        <ellipse id="Ellipse_34" data-name="Ellipse 34" cx="6.728" cy="6.728" rx="6.728" ry="6.728" transform="translate(345.611 63.537)" fill="#071a0f"/>
        <ellipse id="Ellipse_35" data-name="Ellipse 35" cx="4.958" cy="4.958" rx="4.958" ry="4.958" transform="translate(318.537 167.59)" fill="#feba38"/>
        <rect id="Rectangle_45" data-name="Rectangle 45" width="415.047" height="15.464" transform="translate(0 216.73)" fill="#e6e6e6"/>
        <rect id="Rectangle_46" data-name="Rectangle 46" width="415.047" height="32.434" transform="translate(0 232.181)" fill="#a5a5a5"/>
      </g>
    </g>
  </g>
</svg>
