<svg xmlns="http://www.w3.org/2000/svg" xmlns:xlink="http://www.w3.org/1999/xlink" width="464.572" height="417.268" viewBox="0 0 464.572 417.268">
  <defs>
    <clipPath id="clip-path">
      <path id="blob_7_" data-name="blob (7)" d="M404.372,51.575c27.312,70.012-30.39,181.954-123.867,251.2C187.027,372.4,58.159,399.327-4.545,350.088c-62.7-48.855-59.241-174.261-22.312-258.121,37.314-83.861,108.1-126.176,199.65-133.1C264.733-47.672,377.06-18.821,404.372,51.575Z" transform="translate(21679.498 -4053.053)" fill="#f06"/>
    </clipPath>
  </defs>
  <g id="Group_169" data-name="Group 169" transform="translate(-1087.098 -3650.913)">
    <path id="blob_7_2" data-name="blob (7)" d="M404.372,51.575c27.312,70.012-30.39,181.954-123.867,251.2C187.027,372.4,58.159,399.327-4.545,350.088c-62.7-48.855-59.241-174.261-22.312-258.121,37.314-83.861,108.1-126.176,199.65-133.1C264.733-47.672,377.06-18.821,404.372,51.575Z" transform="translate(1140.498 3692.947)" fill="#d2d2d2"/>
    <g id="Mask_Group_22" data-name="Mask Group 22" transform="translate(-20539 7746)" clip-path="url(#clip-path)">
      <g id="Content_creation_Two_Color" data-name="Content creation_Two Color" transform="translate(21605.842 -4040.584)">
        <path id="Path_161" data-name="Path 161" d="M224.1,76.66s-27.214,27.907-42.844,51.585-59.873-35.163-59.873-35.163l-8.713,10.325s36.04,74.3,81.458,55.644S268.726,86.858,224.1,76.66Z" transform="translate(1.974 -26.267)" fill="#071a0f"/>
        <path id="Path_162" data-name="Path 162" d="M224.1,76.66s-27.214,27.907-42.844,51.585-59.873-35.163-59.873-35.163l-8.713,10.325s36.04,74.3,81.458,55.644S268.726,86.858,224.1,76.66Z" transform="translate(1.974 -26.267)" fill="#fff" opacity="0.46"/>
        <path id="Path_163" data-name="Path 163" d="M255.067,77.907s-30.156-20.524-62.9,4.555,9.661,113.594,9.661,113.594l61.274,2.037S338.165,131.274,255.067,77.907Z" transform="translate(29.777 -29.028)" fill="#071a0f"/>
        <path id="Path_164" data-name="Path 164" d="M241.587,90.42s-27.115,12.56-9.731,38.826.127,53.438-37.766,54.527l41.344,10.34,46.974-26.266-5.587-35.488Z" transform="translate(35.718 -20.565)" opacity="0.08"/>
        <path id="Path_165" data-name="Path 165" d="M205.763,51.762s-.41,8.487,1.231,14.144a4.243,4.243,0,0,0,5.347,2.829,9.448,9.448,0,0,0,7.072-7.4l2.263-7.553A7.624,7.624,0,0,0,218,45.75C213.09,42.5,205.749,46.585,205.763,51.762Z" transform="translate(40.537 -39.559)" fill="#f4a28c"/>
        <path id="Path_166" data-name="Path 166" d="M219.633,52.08l5.46,27.412L209.76,81.416l2.192-20.722Z" transform="translate(42.212 -36.454)" fill="#f4a28c"/>
        <path id="Path_167" data-name="Path 167" d="M209.51,53.5a33.126,33.126,0,0,0,7.836-.905,7.072,7.072,0,0,0,.3,7.808,5.813,5.813,0,0,0,7.072,2.037l-.566-10.948a8.671,8.671,0,0,0-4.7-7.567,31.5,31.5,0,0,0-3.72-1.641c-3.211-1.146-7.737,1.132-10.651-.891a2.065,2.065,0,0,0-3.211,1.485c-.354,3.338.438,8.487,5.007,10.212A7.85,7.85,0,0,0,209.51,53.5Z" transform="translate(38.912 -41.03)"/>
        <path id="Path_168" data-name="Path 168" d="M212.35,55.487s0-3.282,2.419-3.126,2.588,4.908-.75,5.474Z" transform="translate(43.286 -36.34)" fill="#f4a28c"/>
        <path id="Path_169" data-name="Path 169" d="M206.477,53.47l-2.249,3.366a1.414,1.414,0,0,0,.934,2.108l3.282.5Z" transform="translate(39.838 -35.878)" fill="#f4a28c"/>
        <path id="Path_170" data-name="Path 170" d="M211.006,62.3a10.156,10.156,0,0,0,4.866-3.168s0,5.106-5.431,10.368Z" transform="translate(42.494 -33.532)" fill="#ce8172" opacity="0.31"/>
        <path id="Path_171" data-name="Path 171" d="M237.65,105.433c-2.829-17.454,18.515-28.289,31.118-15.828,8.939,8.784,17.143,21.3,18.289,38.105,2.673,38.812-8.487,73.311-31.6,68.53s-57.568-53.749-57.568-53.749l7.553-7.666s33.749,34.809,48.883,29.915C265.076,161.261,242.134,132.774,237.65,105.433Z" transform="translate(37.293 -23.13)" fill="#071a0f"/>
        <path id="Path_172" data-name="Path 172" d="M237.65,105.433c-2.829-17.454,18.515-28.289,31.118-15.828,8.939,8.784,17.143,21.3,18.289,38.105,2.673,38.812-8.487,73.311-31.6,68.53s-57.568-53.749-57.568-53.749l7.553-7.666s33.749,34.809,48.883,29.915C265.076,161.261,242.134,132.774,237.65,105.433Z" transform="translate(37.293 -23.13)" fill="#fff" opacity="0.46"/>
        <path id="Path_173" data-name="Path 173" d="M209.788,125.451s-4.356-18.9-7.553-18.6,0,11.924,0,11.924-4.993-9.548-7.652-9.9,4.144,12.461,4.144,12.461-8.3-7.511-10.976-5.248,11.019,10.891,11.019,10.891-1.641,6.224,3.465,6.082Z" transform="translate(32.948 -13.756)" fill="#f4a28c"/>
        <path id="Path_174" data-name="Path 174" d="M123.773,90.608s-11.556-13.183-16.012-5.658,9.9,12.942,9.9,12.942Z" transform="translate(-0.416 -23.793)" fill="#f4a28c"/>
        <rect id="Rectangle_56" data-name="Rectangle 56" width="278.815" height="20.198" transform="translate(95.04 166.561)" fill="#e6e6e6"/>
        <rect id="Rectangle_57" data-name="Rectangle 57" width="261.983" height="119.124" transform="translate(103.47 186.759)" fill="#e6e6e6"/>
        <path id="Path_175" data-name="Path 175" d="M171.28,273.938V183.06l77.342,45.432Z" transform="translate(26.265 17.829)" fill="#feba38"/>
        <path id="Path_176" data-name="Path 176" d="M366.759,173.07v34.06c-121.133-3.847-209.705,33.72-261.969,65.149V173.07Z" transform="translate(-1.292 13.689)" opacity="0.08"/>
        <path id="Path_177" data-name="Path 177" d="M111.193,166.76l-4.823-27.27h34.215l2.97,23.253,15.686.212v3.8Z" transform="translate(-0.637 -0.228)"/>
        <rect id="Rectangle_58" data-name="Rectangle 58" width="7.341" height="229.295" transform="translate(429.994 54.749)" fill="#e6e6e6"/>
        <rect id="Rectangle_59" data-name="Rectangle 59" width="7.341" height="67.865" transform="matrix(0.836, 0.549, -0.549, 0.836, 431.213, 246.896)" fill="#e6e6e6"/>
        <rect id="Rectangle_60" data-name="Rectangle 60" width="7.341" height="67.865" transform="matrix(-0.836, 0.549, -0.549, -0.836, 473.371, 303.653)" fill="#e6e6e6"/>
        <rect id="Rectangle_61" data-name="Rectangle 61" width="12.9" height="12.9" transform="translate(427.208 48.299)" fill="#b3b3b3"/>
        <rect id="Rectangle_62" data-name="Rectangle 62" width="30.736" height="21.004" rx="3.03" transform="translate(418.113 32.726)" fill="#e6e6e6"/>
        <path id="Path_178" data-name="Path 178" d="M294,42.076c22.631-5.516,46.266,11.4,52.688,37.794s-6.775,52.235-29.463,57.752Z" transform="translate(77.125 -41.033)" fill="#b3b3b3"/>
        <ellipse id="Ellipse_36" data-name="Ellipse 36" cx="9.873" cy="9.873" rx="9.873" ry="9.873" transform="translate(40.64 90.662)" fill="#b3b3b3"/>
        <rect id="Rectangle_63" data-name="Rectangle 63" width="4.908" height="40.708" transform="translate(44.643 158.103) rotate(180)" fill="#e6e6e6"/>
        <path id="Path_179" data-name="Path 179" d="M53.122,108.907h6.945l1.5-6h8.4l1.5,6h6.945a2.15,2.15,0,0,1,2.136,2.136v13.3a2.136,2.136,0,0,1-2.136,2.136H53.122A2.136,2.136,0,0,1,51,124.339v-13.3a2.15,2.15,0,0,1,2.122-2.136Z" transform="translate(-23.585 -15.388)" fill="#e6e6e6"/>
        <rect id="Rectangle_64" data-name="Rectangle 64" width="16.535" height="9.307" transform="translate(47.486 106.221) rotate(180)" fill="#feba38"/>
        <rect id="Rectangle_65" data-name="Rectangle 65" width="10.792" height="7.27" transform="translate(47.585 118.357) rotate(180)" fill="#b3b3b3"/>
        <rect id="Rectangle_66" data-name="Rectangle 66" width="5.997" height="148.389" transform="translate(45.181 308.26) rotate(180)" fill="#e6e6e6"/>
        <rect id="Rectangle_67" data-name="Rectangle 67" width="5.997" height="148.389" transform="translate(81.394 305.016) rotate(168.02)" fill="#e6e6e6"/>
        <rect id="Rectangle_68" data-name="Rectangle 68" width="5.997" height="148.389" transform="translate(33.793 159.856) rotate(11.98)" fill="#e6e6e6"/>
        <rect id="Rectangle_69" data-name="Rectangle 69" width="16.945" height="4.965" transform="translate(50.655 162.346) rotate(180)" fill="#b3b3b3"/>
        <path id="Path_180" data-name="Path 180" d="M281.016,152.756s-11.316-3.083-13.706-13.564c0,0,17.454-3.522,17.949,14.484Z" transform="translate(66.064 -0.467)" fill="#071a0f" opacity="0.58"/>
        <path id="Path_181" data-name="Path 181" d="M279.042,154.956s-7.864-12.433-.948-24.046c0,0,13.268,8.487,7.383,24.046Z" transform="translate(69.353 -3.784)" fill="#071a0f" opacity="0.73"/>
        <path id="Path_182" data-name="Path 182" d="M279.36,152.479s4.158-13.14,16.733-15.559c0,0,2.348,8.487-8.147,15.658Z" transform="translate(71.058 -1.293)" fill="#071a0f"/>
        <path id="Path_183" data-name="Path 183" d="M273.59,147.71l2.277,15.615,14.385.057,2.122-15.6Z" transform="translate(68.666 3.179)"/>
      </g>
    </g>
  </g>
</svg>
