<svg xmlns="http://www.w3.org/2000/svg" width="1244.016" height="1218.722" viewBox="0 0 1244.016 1218.722">
  <g id="Group_160" data-name="Group 160" transform="translate(-679.314)">
    <g id="Group_138" data-name="Group 138">
      <path id="Path_306" data-name="Path 306" d="M20118.6-7746s277.117,445.233,458.779,626.459,366.762,235.212,468.346,258.818,113.314,56.657,147.652,152.8,139.07,187.142,149.371,180.274,0-1215.563,0-1215.563Z" transform="translate(-19424 7746)" fill="#e7e7e7"/>
      <path id="Path_305" data-name="Path 305" d="M20103.314-7746s232.123,255.523,283.459,454.168,122.76,303.547,359.348,339.259,421.842,49.1,477.641,218.733,118.293,178.557,118.293,178.557V-7746Z" transform="translate(-19424 7746)" fill="#e7e7e7"/>
    </g>
    <path id="Path_118" data-name="Path 118" d="M10146-1225.15s-63.707,7.108-53.818,83.308-16.869,87.252-52.352,125.643,8.145,78.527,49.443,130.878S10146-813.191,10146-813.191Z" transform="translate(-8226 1332)" fill="#071a0f" opacity="0.08"/>
    <circle id="Ellipse_43" data-name="Ellipse 43" cx="8.5" cy="8.5" r="8.5" transform="translate(1734 249)" fill="#fff"/>
    <circle id="Ellipse_42" data-name="Ellipse 42" cx="8.5" cy="8.5" r="8.5" transform="translate(1742 182)" fill="#fff"/>
    <circle id="Ellipse_106" data-name="Ellipse 106" cx="8.5" cy="8.5" r="8.5" transform="translate(1785 241)" fill="#fff"/>
  </g>
</svg>
