<svg xmlns="http://www.w3.org/2000/svg" width="334.249" height="287.983" viewBox="0 0 334.249 287.983">
  <g id="Group_177" data-name="Group 177" transform="translate(-10174.375 -2226.909)">
    <ellipse id="Ellipse_135" data-name="Ellipse 135" cx="167.125" cy="24.429" rx="167.125" ry="24.429" transform="translate(10174.375 2466.035)" fill="#e6e6e6" opacity="0.3"/>
    <g id="Group_176" data-name="Group 176" transform="translate(-4834.531 1606.405)">
      <path id="Path_215" data-name="Path 215" d="M387.893,145.54s68.215,11.527,65.051,59.113c-2.507,37.847,17.033,110.418-75.53,106.268s-136.246-9.308-114.425-80.132S387.893,145.54,387.893,145.54Z" transform="translate(14865.733 572.325)" fill="#feba38"/>
      <path id="Path_216" data-name="Path 216" d="M417.073,167.647a26.978,26.978,0,0,1-12.328,27.677c-12.554,8.219-31.868,37.683-46.888,52.579a24.533,24.533,0,0,0-7.315,17.752,10.725,10.725,0,0,1-4.623,8.548c-10.417,8.506-54.12,12.78-78.55-13.417s7.767-39.162,7.767-39.162l105.919-73.331C377.4,146.361,412.738,153.347,417.073,167.647Z" transform="translate(14866.531 574.895)" opacity="0.09"/>
      <path id="Path_217" data-name="Path 217" d="M226.674,220a12.452,12.452,0,0,1-8.013,7.048c-5.712,1.294-8.815,8.321,3.678,7.171s19.355.822,17.547-6.041-.966-7.89-.966-7.89Z" transform="translate(14819.553 650.857)" fill="#f4a28c"/>
      <path id="Path_218" data-name="Path 218" d="M254.576,222.571a12.472,12.472,0,0,1-6.6,8.4c-5.363,2.322-7.15,9.78,4.931,6.39s19.17-2.733,16.15-9.143-2.4-7.582-2.4-7.582Z" transform="translate(14851.382 651.531)" fill="#f4a28c"/>
      <path id="Path_219" data-name="Path 219" d="M294.325,175.39s-76.373.781-75.633,91.865l18.04,3.041s3.452-96.159,102.734-50.36l-5.178-37.888Z" transform="translate(14824.843 603.807)"/>
      <path id="Path_220" data-name="Path 220" d="M294.325,175.39s-76.373.781-75.633,91.865l18.04,3.041s3.452-96.159,102.734-50.36l-5.178-37.888Z" transform="translate(14824.843 603.807)" opacity="0.09"/>
      <path id="Path_221" data-name="Path 221" d="M288.557,152.545S261.333,166.517,252,160.126s-11.979-41.956-11.979-41.956l-12.78,2.835s-4.911,70.27,16.725,77.564,59.3-11.362,59.3-11.362Z" transform="translate(14833.364 543.459)" fill="#f4a28c"/>
      <path id="Path_222" data-name="Path 222" d="M333.75,145.812c-8.979,17.835-28.642,41.73-70.352,46.148l-8.938-44.812s31.724-20.054,65.318-22.6a14.629,14.629,0,0,1,13.972,21.266Z" transform="translate(14862.571 550.151)" fill="#b86795"/>
      <path id="Path_223" data-name="Path 223" d="M333.75,145.812c-8.979,17.835-28.642,41.73-70.352,46.148l-8.938-44.812s31.724-20.054,65.318-22.6a14.629,14.629,0,0,1,13.972,21.266Z" transform="translate(14862.571 550.151)" fill="#fff" opacity="0.46"/>
      <path id="Path_224" data-name="Path 224" d="M239.6,127.121c.637-.144,1.274-13.725-.37-12.472a7.52,7.52,0,0,0-2.24,3.8s0-9.616-4.952-8.547-6.637,12.143-4.685,19.91l12.164-2.24" transform="translate(14833.15 534.652)" fill="#f4a28c"/>
      <path id="Path_225" data-name="Path 225" d="M289.742,108.183a56.256,56.256,0,0,0,0,15.122,4.541,4.541,0,0,0,5.383,3.575,10.068,10.068,0,0,0,8.219-7.15l3.123-7.787a8.219,8.219,0,0,0-3.123-8.917C298.433,99.081,290.235,102.676,289.742,108.183Z" transform="translate(14899.244 525.728)" fill="#f4a28c"/>
      <path id="Path_226" data-name="Path 226" d="M304.215,107.19l3.1,29.649-16.458.555,4.356-21.8Z" transform="translate(14900.962 531.878)" fill="#f4a28c"/>
      <path id="Path_227" data-name="Path 227" d="M294.341,112.076a36.409,36.409,0,0,0,8.4-.205,7.623,7.623,0,0,0-.452,8.219,6.164,6.164,0,0,0,7.335,2.856l.473-11.691a9.246,9.246,0,0,0-4.253-8.486,32.292,32.292,0,0,0-3.8-2.055c-3.288-1.52-8.321.452-11.219-2.055a2.2,2.2,0,0,0-3.555,1.253c-.7,3.513-.37,9.123,4.335,11.321A8.4,8.4,0,0,0,294.341,112.076Z" transform="translate(14896.885 522.349)" fill="#feba38"/>
      <path id="Path_228" data-name="Path 228" d="M294,110.319s.247-3.493,2.856-3.082,2.281,5.465-1.315,5.733Z" transform="translate(14904.273 531.893)" fill="#f4a28c"/>
      <path id="Path_229" data-name="Path 229" d="M290.8,107.47l-2.733,3.349a1.479,1.479,0,0,0,.8,2.342L292.3,114Z" transform="translate(14897.69 532.174)" fill="#f4a28c"/>
      <path id="Path_230" data-name="Path 230" d="M293.074,115.057a10.807,10.807,0,0,0,5.486-2.877,16.992,16.992,0,0,1-6.78,10.479Z" transform="translate(14901.932 537.141)" fill="#ce8172" opacity="0.31"/>
      <path id="Path_231" data-name="Path 231" d="M371.267,150.952a45.367,45.367,0,0,0-44.34-29.382l-7.294.247s-51.264-.226-55.148,46.456S281.7,251.939,281.7,251.939l68.893,2.507S386.143,192.127,371.267,150.952Z" transform="translate(14872.642 547.004)" fill="#b86795"/>
      <path id="Path_232" data-name="Path 232" d="M305.543,133.35s-9.821,34.642-6.164,68.215-5.959,39.47-5.959,39.47l26.218.945s7.787-13.479,9.9-20.547S342.979,134.686,305.543,133.35Z" transform="translate(14903.662 559.469)" opacity="0.08"/>
      <path id="Path_233" data-name="Path 233" d="M323.193,128.794c15.862,12.123,35.71,35.875,32.3,77.687l-45.7.473s-13.807-34.93-10.006-68.359a14.629,14.629,0,0,1,23.4-9.8Z" transform="translate(14909.682 551.491)" fill="#b86795"/>
      <path id="Path_234" data-name="Path 234" d="M323.193,128.794c15.862,12.123,35.71,35.875,32.3,77.687l-45.7.473s-13.807-34.93-10.006-68.359a14.629,14.629,0,0,1,23.4-9.8Z" transform="translate(14909.682 551.491)" fill="#fff" opacity="0.46"/>
      <path id="Path_235" data-name="Path 235" d="M342.147,165.08s1.171,61.866-16.663,97.453l-9.739-1.459s8.054-59.216-8.054-95.625Z" transform="translate(14918.712 592.934)" fill="#f4a28c"/>
      <path id="Path_236" data-name="Path 236" d="M326.043,213.259s-4.212,20.341-15.122,12.924S316.3,211.8,316.3,211.8Z" transform="translate(14918.152 642.208)" fill="#f4a28c"/>
      <path id="Path_237" data-name="Path 237" d="M376.738,214.735s-57.531-54.182-110.829-53.894S253.58,293.059,253.58,293.059l17.609-7.15s2.055-64.394,8.712-80.728S313.1,296.655,376.738,214.735Z" transform="translate(14845.78 588.461)"/>
    </g>
  </g>
</svg>
