<svg xmlns="http://www.w3.org/2000/svg" width="334.249" height="272.012" viewBox="0 0 334.249 272.012">
  <g id="Group_175" data-name="Group 175" transform="translate(-10184.845 -1887.241)">
    <ellipse id="Ellipse_134" data-name="Ellipse 134" cx="167.125" cy="24.429" rx="167.125" ry="24.429" transform="translate(10184.845 2110.395)" fill="#e6e6e6" opacity="0.3"/>
    <path id="Path_399" data-name="Path 399" d="M91.108,148S59.19,163.4,55.032,198.648,39.074,302.1,125.817,298.155,253.467,289.434,233,223.077,91.108,148,91.108,148Z" transform="translate(10159.419 1840.52)" fill="#feba38"/>
    <path id="Path_405" data-name="Path 405" d="M70.871,159.428a25.276,25.276,0,0,0,11.55,25.931c11.762,7.7,29.877,35.306,43.93,49.262a22.908,22.908,0,0,1,6.853,16.632,10.049,10.049,0,0,0,4.331,8.008c9.76,7.97,50.706,11.974,73.614-12.571s-7.3-36.692-7.3-36.692L103.212,155.52Z" transform="translate(10176.441 1847.476)" opacity="0.09"/>
    <path id="Path_400" data-name="Path 400" d="M192.334,220a11.666,11.666,0,0,0,7.489,6.6c5.352,1.213,8.258,7.8-3.446,6.718s-18.115.77-16.44-5.66.924-7.392.924-7.392Z" transform="translate(10277.457 1907.124)" fill="#f4a28c"/>
    <path id="Path_401" data-name="Path 401" d="M153.191,220.3a11.666,11.666,0,0,0,3.1,9.49c3.985,3.85,3.138,10.934-6.391,4.043s-16-8.567-11.281-13.225,4.562-5.91,4.562-5.91Z" transform="translate(10238.02 1902.221)" fill="#f4a28c"/>
    <path id="Path_402" data-name="Path 402" d="M171.024,175.39s71.554.732,70.861,86.069L225,264.309s-3.234-90.093-96.253-47.183l4.851-35.5Z" transform="translate(10230.35 1865.857)"/>
    <path id="Path_403" data-name="Path 403" d="M171.024,175.39s71.554.732,70.861,86.069L225,264.309s-3.234-90.093-96.253-47.183l4.851-35.5Z" transform="translate(10230.35 1865.857)" opacity="0.09"/>
    <path id="Path_412" data-name="Path 412" d="M153.66,136.049l6.2,1.656-4.408-4.755Z" transform="translate(10253.394 1826.598)" fill="#feba38"/>
    <path id="Path_409" data-name="Path 409" d="M103,186.194s12.359,31.224,42.544,25.757,41.639-68.821,41.639-68.821,11.955-7.7,6.16-16.421-15.169,10.068-15.169,10.068-12.994,53.343-41.139,36.056Z" transform="translate(10206.529 1818.689)" fill="#f4a28c"/>
    <path id="Path_410" data-name="Path 410" d="M103,186.194s12.359,31.224,42.544,25.757,41.639-68.821,41.639-68.821,11.955-7.7,6.16-16.421-15.169,10.068-15.169,10.068-12.994,53.343-41.139,36.056Z" transform="translate(10206.529 1818.689)" opacity="0.09"/>
    <path id="Path_406" data-name="Path 406" d="M119.842,123.589l6.545,1.367s50.4,27.355,41.023,54.768,11.108,53.44,11.108,53.44l-43.834,30.8s-57.271-28.452-48.7-106.687C85.98,157.355,89.965,120.875,119.842,123.589Z" transform="translate(10189.978 1817.805)" fill="#b86795"/>
    <rect id="Rectangle_299" data-name="Rectangle 299" width="9.163" height="78.311" transform="translate(10417.421 1952.883) rotate(25.68)" fill="#e6e6e6"/>
    <path id="Path_413" data-name="Path 413" d="M106.267,105.66,97.2,137.654l18,3.735-.635-24.776Z" transform="translate(10201.164 1801.353)" fill="#f4a28c"/>
    <path id="Path_414" data-name="Path 414" d="M109.041,116.205a12.109,12.109,0,0,1-5.467-4.235s-.462,6.083,5.467,12.84Z" transform="translate(10207.053 1807.19)" fill="#ce8172" opacity="0.31"/>
    <path id="Path_415" data-name="Path 415" d="M120.837,110.9a63.028,63.028,0,0,1-3.85,16.421,5.082,5.082,0,0,1-6.757,2.541,11.262,11.262,0,0,1-7.2-9.895l-1.425-9.26a9.067,9.067,0,0,1,5.64-8.875C113.7,98.773,121.627,104.837,120.837,110.9Z" transform="translate(10205.229 1797.055)" fill="#f4a28c"/>
    <path id="Path_417" data-name="Path 417" d="M107.649,111.574s.6-3.85-2.349-4.081-3.85,5.352,0,6.584Z" transform="translate(10206.289 1803.042)" fill="#f4a28c"/>
    <path id="Path_416" data-name="Path 416" d="M112.721,109.44l2.1,4.351a1.617,1.617,0,0,1-1.444,2.329H109.41Z" transform="translate(10212.459 1804.849)" fill="#f4a28c"/>
    <rect id="Rectangle_302" data-name="Rectangle 302" width="35.968" height="3.593" transform="translate(10378.848 1942.613) rotate(29.887)"/>
    <path id="Path_407" data-name="Path 407" d="M144.4,226.662l-10.049,17.018S97.89,226.046,87.437,178.227s24.083-29.2,24.083-29.2Z" transform="translate(10190.31 1838.167)" opacity="0.18"/>
    <path id="Path_404" data-name="Path 404" d="M110.86,229.45s33.785-68.879,83.74-68.609-14.938,111.114-14.938,111.114l-16.556-6.7s24.525-47.568,18.25-62.872S165.666,292.707,110.86,229.45Z" transform="translate(10213.801 1852.397)"/>
    <path id="Path_408" data-name="Path 408" d="M103.574,126.446s15.035-7.7,22.677,7.854,1.617,82.123,32.611,85.588,46.721-28.876,46.721-28.876,2.56-13.629,6.834-15.843,7.989,12.032,0,20.348c0,0-13.668,51.361-57.02,52.516S60.8,161.6,103.574,126.446Z" transform="translate(10192.172 1818.818)" fill="#f4a28c"/>
    <path id="Path_411" data-name="Path 411" d="M155.6,102.975s9.876,11.55-2.926,14.053-15.4,4.736-14.188,17.691,6.276,24.872-10.665,33.073-2.31,21.58-5.506,37.539S104.281,232.281,85.2,221.386s-30.8-38.6-10.415-55.249,46.2-20.656,46.2-47.453S142.378,90.5,155.6,102.975Z" transform="translate(10170.539 1791.852)"/>
    <rect id="Rectangle_300" data-name="Rectangle 300" width="13.552" height="7.642" transform="translate(10395.188 2008.749) rotate(20.87)" fill="#b86795"/>
    <rect id="Rectangle_301" data-name="Rectangle 301" width="13.552" height="7.642" transform="translate(10395.188 2008.749) rotate(20.87)" fill="#fff" opacity="0.44"/>
  </g>
</svg>
