<svg xmlns="http://www.w3.org/2000/svg" width="614.5" height="377.477" viewBox="0 0 614.5 377.477">
  <g id="Chatting_Two_Color" data-name="Chatting_Two Color" transform="translate(-38.03 -57.895)">
    <ellipse id="Ellipse_139" data-name="Ellipse 139" cx="307.25" cy="38.523" rx="307.25" ry="38.523" transform="translate(38.03 358.325)" fill="#e6e6e6" opacity="0.45"/>
    <path id="Path_420" data-name="Path 420" d="M243.73,229.051,296.694,197.4s14.82-7.33,25.895-.757,3.406,14.521-5.976,9.242c0,0,.757,15.716-8.346,13.465s-11.115-4.82-11.115-4.82l-40,41.969Z" transform="translate(204.033 133.417)" fill="#f4a28c"/>
    <path id="Path_421" data-name="Path 421" d="M243.73,229.051,296.694,197.4s14.82-7.33,25.895-.757,3.406,14.521-5.976,9.242c0,0,.757,15.716-8.346,13.465s-11.115-4.82-11.115-4.82l-40,41.969Z" transform="translate(204.033 133.417)" opacity="0.08"/>
    <path id="Path_422" data-name="Path 422" d="M268.439,163.005s16.792,43.5-10.059,46.491-20.855-46.69-5.976-55.972S268.439,163.005,268.439,163.005Z" transform="translate(200.079 90.805)" fill="#24285b"/>
    <path id="Path_423" data-name="Path 423" d="M131.059,250.411l21.313-75.692c8.565-4.92,8.266-9.959-1.992-15s-5.976-13.087-20.138-15.2,7.031,23.425,7.031,23.425h0l-43.4,82.464,9.3,26.652,86.349,18.6L193.7,237.9Z" transform="translate(55.387 84.31)" fill="#f4a28c"/>
    <path id="Path_424" data-name="Path 424" d="M131.059,250.411l21.313-75.692c8.565-4.92,8.266-9.959-1.992-15s-5.976-13.087-20.138-15.2,7.031,23.425,7.031,23.425h0l-43.4,82.464,9.3,26.652,86.349,18.6L193.7,237.9Z" transform="translate(55.387 84.31)" opacity="0.08"/>
    <path id="Path_425" data-name="Path 425" d="M273.08,154.248s-4.382,12.071-9.959,18.863a6.474,6.474,0,0,1-9.1.9c-3.386-2.848-7.131-7.669-5.577-14.421l1.255-11.772a11.553,11.553,0,0,1,9.8-9.023C268.3,137.138,276.128,147.038,273.08,154.248Z" transform="translate(208.346 78.568)" fill="#f4a28c"/>
    <path id="Path_426" data-name="Path 426" d="M265.247,144.21,232.58,170.682l15.875,16.971,16.951-25.417Z" transform="translate(192.973 84.124)" fill="#f4a28c"/>
    <path id="Path_427" data-name="Path 427" d="M262.145,150.2l1.155,5.976a1.992,1.992,0,0,1-2.53,2.39l-4.84-1.235Z" transform="translate(216.134 90.066)" fill="#f4a28c"/>
    <path id="Path_428" data-name="Path 428" d="M251.453,158.4s-1.613-2.848-1.255-9.561c0,0-6.434,5.816-3.127,16.154Z" transform="translate(206.409 88.717)" fill="#ce8172" opacity="0.31"/>
    <path id="Path_429" data-name="Path 429" d="M254.9,150.431s1.992-4.522-1.534-5.737-6.434,5.279-2.151,7.968Z" transform="translate(209.337 84.456)" fill="#f4a28c"/>
    <path id="Path_430" data-name="Path 430" d="M256.474,150.167s1.474-5.518-3.107-6.294-6.852,5.5-2.43,9.959Z" transform="translate(208.818 83.724)" fill="#f4a28c"/>
    <path id="Path_431" data-name="Path 431" d="M347.979,189.7h0A93.62,93.62,0,0,1,363.1,218.818c7.47,23.9,17.27,66.27,0,83.421-18.624,18.485-221.718,0-221.718,0l5.976-82.664s60.434-25.2,98.1-50.236c44-29.241,75.692-18.047,95.133,10.179C342.94,183.043,345.43,186.449,347.979,189.7Z" transform="translate(102.512 92.001)" fill="#071a0f"/>
    <path id="Path_432" data-name="Path 432" d="M237.7,212.405s19.043-16.314,35.635-3.605c0,0-6.992-23.9-14.62-33.683S225.647,173.085,237.7,212.405Z" transform="translate(194.886 110.982)" opacity="0.08"/>
    <path id="Path_433" data-name="Path 433" d="M209.8,162.835l-22.747,13.346s1.992,1.793,5.079,5.039a28.763,28.763,0,0,1,3.267,36.153c-14.322,21.054-32.846,56.649-15.218,80.751,0,0,93.46,5.657,128.676,1.235l-47.427-53.3,19.64-47.188L255.419,161.6Z" transform="translate(133.862 101.373)" opacity="0.08"/>
    <path id="Path_434" data-name="Path 434" d="M213.282,305.156H134.861a40.037,40.037,0,0,1-39.1-31.372L68.87,152.816l19.919-3.526,30.4,82.962a32.05,32.05,0,0,0,34.061,20.756l64.4-8.107Z" transform="translate(30.59 89.163)" fill="#f4a28c"/>
    <path id="Path_435" data-name="Path 435" d="M329.964,158.669s-4.123,3.287-12.828,1.992c-7.011-.976-3.446,5.976-8.505,11-2.191,2.151-1.673,9.422-2.311,11.951-1.992,8.167,3.526,33.165-10.418,34.7s-45.614-30.835-62.008-14.76-56.57,3.366-37.308-25.158,76.469-4.163,93.181-34.838C306.221,113.354,347.015,141.9,329.964,158.669Z" transform="translate(152.199 70.322)" fill="#24285b"/>
    <path id="Path_436" data-name="Path 436" d="M175.952,186.04,112.53,209.106l2.669,59.6h54.777Z" transform="translate(73.896 125.615)" fill="#24285b"/>
    <path id="Path_437" data-name="Path 437" d="M80.235,159.576s-32.528-7.49-19.919-14.461,17.927,2.331,29.221,0,14.6,1.633,10.617,10.936Z" transform="translate(19.225 82.402)" fill="#f4a28c"/>
    <rect id="Rectangle_314" data-name="Rectangle 314" width="17.11" height="46.172" transform="matrix(0.886, 0.463, -0.463, 0.886, 545.963, 328.869)" fill="#ffd200"/>
    <path id="Path_438" data-name="Path 438" d="M268.542,163.467a39.28,39.28,0,0,0-43.065,17.788c-17.927,29-47.925,84.994-27.13,105.829,25.118,25.138,159.152,7.649,191.64,2.988a24.022,24.022,0,0,0,15.4-8.585c4.462-5.518,7.45-13.326-1.076-20.895-15.537-13.824-24.8,11.135-24.8,11.135l-114.255-7.051a8.326,8.326,0,0,1-6.454-12.907C274.857,227.307,305.432,173.168,268.542,163.467Z" transform="translate(152.011 102.076)" fill="#f4a28c"/>
    <path id="Path_439" data-name="Path 439" d="M194.6,227.7l69.517,16.712S310.13,185.895,268.8,164,194.6,227.7,194.6,227.7Z" transform="translate(155.301 100.204)" fill="#071a0f"/>
    <path id="Path_440" data-name="Path 440" d="M194.6,227.7l69.517,16.712S310.13,185.895,268.8,164,194.6,227.7,194.6,227.7Z" transform="translate(155.301 100.204)" fill="#fff" opacity="0.46"/>
    <path id="Path_441" data-name="Path 441" d="M487.893,313.189s145.866-132.839,44.28-203.552-155.029,67.246-98.26,80.194,80.672-135.289-77.684-130.31S287.867,195.089,112.58,125.373" transform="translate(73.946 0)" fill="none" stroke="#c9c9c9" stroke-linecap="round" stroke-linejoin="round" stroke-width="3" stroke-dasharray="2 12" opacity="0.45"/>
    <path id="Path_442" data-name="Path 442" d="M144.908,94.487l26.831-15.656L63.38,66.76l49.558,73.3,17.648-37.726Z" transform="translate(25.145 7.302)" fill="#ffd200"/>
    <path id="Path_443" data-name="Path 443" d="M144.908,94.487,137.4,121.856l-6.812-19.521L63.38,66.76Z" transform="translate(25.145 7.302)" fill="#ffd200"/>
    <path id="Path_444" data-name="Path 444" d="M144.908,94.487,137.4,121.856l-6.812-19.521L63.38,66.76Z" transform="translate(25.145 7.302)" fill="#fff" opacity="0.46"/>
    <path id="Path_445" data-name="Path 445" d="M106.5,104.141,94.53,95.635,99.689,84.62Z" transform="translate(56.042 25.017)" fill="#24285b"/>
  </g>
</svg>
